<svg width="27" height="27" viewBox="0 0 27 27" fill="none" xmlns="http://www.w3.org/2000/svg">
<path d="M14.2441 24.59C15.5715 24.59 16.7307 24.4175 17.7218 24.0727C18.7188 23.7348 19.4936 23.2625 20.0463 22.6556C20.6048 22.0487 20.8841 21.3453 20.8841 20.5454C20.8841 20.0143 20.8061 19.5764 20.6499 19.2316C20.4998 18.8799 20.3256 18.5765 20.1273 18.3213C19.9351 18.0661 19.7609 17.8213 19.6048 17.5868C19.4546 17.3454 19.3795 17.0731 19.3795 16.7697C19.3795 16.4869 19.5056 16.2351 19.7579 16.0145C20.0102 15.7869 20.3345 15.5628 20.731 15.3421C21.1334 15.1215 21.5569 14.8801 22.0013 14.618C22.4458 14.3491 22.8663 14.0284 23.2626 13.656C23.665 13.2836 23.9924 12.8388 24.2447 12.3216C24.497 11.7974 24.6231 11.17 24.6231 10.4389C24.6231 9.3562 24.3888 8.37349 23.9203 7.49077C23.4579 6.60806 22.7971 5.84947 21.9382 5.21502C21.0853 4.58057 20.0642 4.09439 18.875 3.75647C17.6857 3.41166 16.3643 3.23926 14.9108 3.23926C13.0308 3.23926 11.316 3.50131 9.76628 4.02542C8.22266 4.54264 6.89225 5.28054 5.77506 6.23911C4.66388 7.19768 3.80497 8.34246 3.19832 9.67343C2.59768 10.9975 2.29736 12.4664 2.29736 14.0801C2.29736 15.6524 2.58267 17.0834 3.15327 18.373C3.72388 19.6557 4.53775 20.7591 5.59487 21.6832C6.658 22.6142 7.91934 23.3314 9.37888 23.8348C10.8384 24.3383 12.4601 24.59 14.2441 24.59ZM14.2441 22.4072C12.7305 22.4072 11.355 22.2073 10.1177 21.8073C8.88637 21.4142 7.82924 20.8522 6.94631 20.1212C6.06337 19.3833 5.38164 18.5041 4.90113 17.4834C4.42663 16.4628 4.18937 15.3283 4.18937 14.0801C4.18937 12.7768 4.44164 11.594 4.94618 10.532C5.45672 9.46999 6.1835 8.55624 7.12649 7.79076C8.0695 7.02528 9.19873 6.4391 10.5141 6.03223C11.8295 5.61845 13.2951 5.41157 14.9108 5.41157C16.4844 5.41157 17.8569 5.6219 19.0282 6.04257C20.1994 6.46324 21.1064 7.05286 21.749 7.81144C22.3978 8.56313 22.7221 9.43896 22.7221 10.4389C22.7221 11.0182 22.5959 11.5079 22.3437 11.9078C22.0914 12.3009 21.764 12.6388 21.3616 12.9216C20.9652 13.2043 20.5418 13.4663 20.0913 13.7077C19.6468 13.9422 19.2233 14.1905 18.8209 14.4525C18.4185 14.7145 18.0911 15.0214 17.8389 15.3732C17.5866 15.7249 17.4605 16.1627 17.4605 16.6869C17.4605 17.1351 17.5356 17.5144 17.6857 17.8248C17.8419 18.1351 18.0191 18.4144 18.2173 18.6627C18.4155 18.9109 18.5897 19.1592 18.7398 19.4074C18.896 19.6488 18.9741 19.9281 18.9741 20.2453C18.9741 20.9005 18.5416 21.4245 17.6767 21.8176C16.8178 22.2107 15.6736 22.4072 14.2441 22.4072ZM13.4693 20.0385C13.9437 20.0385 14.3732 19.9109 14.7576 19.6557C15.148 19.3937 15.4543 19.042 15.6766 18.6006C15.9048 18.1592 16.0189 17.6627 16.0189 17.111C16.0189 16.58 15.9019 16.0938 15.6676 15.6524C15.4393 15.2111 15.133 14.8594 14.7486 14.5973C14.3642 14.3284 13.9378 14.1939 13.4693 14.1939C13.0067 14.1939 12.5833 14.3284 12.1989 14.5973C11.8145 14.8594 11.5052 15.2111 11.2709 15.6524C11.0426 16.0938 10.9286 16.58 10.9286 17.111C10.9286 17.6489 11.0426 18.142 11.2709 18.5903C11.5052 19.0316 11.8145 19.3833 12.1989 19.6454C12.5833 19.9074 13.0067 20.0385 13.4693 20.0385ZM13.4693 18.6834C13.217 18.6834 12.9887 18.6143 12.7845 18.4764C12.5803 18.3385 12.4151 18.1488 12.289 17.9075C12.1689 17.6661 12.1088 17.4006 12.1088 17.111C12.1088 16.7869 12.1719 16.511 12.298 16.2835C12.4242 16.0558 12.5893 15.88 12.7935 15.7559C12.9977 15.6249 13.217 15.5593 13.4512 15.5593C13.6914 15.5525 13.9167 15.611 14.1269 15.7352C14.3372 15.8593 14.5083 16.0352 14.6404 16.2628C14.7726 16.4903 14.8387 16.773 14.8387 17.111C14.8387 17.4006 14.7787 17.6661 14.6585 17.9075C14.5384 18.1488 14.3732 18.3385 14.163 18.4764C13.9587 18.6143 13.7275 18.6834 13.4693 18.6834ZM7.20758 15.4766C7.62202 15.4766 7.9734 15.3076 8.2617 14.9697C8.55001 14.6249 8.69416 14.218 8.69416 13.7491C8.69416 13.2733 8.55001 12.8699 8.2617 12.5388C7.9734 12.2009 7.62202 12.0319 7.20758 12.0319C6.80516 12.0319 6.45678 12.2009 6.16247 12.5388C5.86816 12.8699 5.721 13.2733 5.721 13.7491C5.721 14.218 5.86816 14.6249 6.16247 14.9697C6.45678 15.3076 6.80516 15.4766 7.20758 15.4766ZM10.451 12.1974C10.9676 12.1974 11.406 11.9906 11.7664 11.5768C12.1328 11.163 12.316 10.6526 12.316 10.0458C12.316 9.45964 12.1328 8.96312 11.7664 8.55624C11.406 8.14246 10.9676 7.93558 10.451 7.93558C9.92849 7.93558 9.48397 8.14246 9.11762 8.55624C8.75723 8.96312 8.57704 9.45964 8.57704 10.0458C8.57704 10.6526 8.75723 11.163 9.11762 11.5768C9.48397 11.9906 9.92849 12.1974 10.451 12.1974ZM14.9558 10.5527C15.3703 10.5527 15.7216 10.3837 16.01 10.0458C16.3043 9.7079 16.4514 9.30103 16.4514 8.82519C16.4514 8.34246 16.3043 7.93558 16.01 7.60456C15.7216 7.26665 15.3703 7.09769 14.9558 7.09769C14.5414 7.09769 14.184 7.26665 13.8837 7.60456C13.5894 7.94248 13.4422 8.34936 13.4422 8.82519C13.4422 9.30103 13.5894 9.7079 13.8837 10.0458C14.184 10.3837 14.5414 10.5527 14.9558 10.5527ZM19.0011 11.2044C19.3375 11.2044 19.6228 11.0699 19.857 10.8009C20.0973 10.5252 20.2174 10.1906 20.2174 9.79756C20.2174 9.41826 20.0973 9.09069 19.857 8.81484C19.6228 8.539 19.3375 8.40108 19.0011 8.40108C18.6647 8.40108 18.3735 8.539 18.1272 8.81484C17.8869 9.09069 17.7668 9.41826 17.7668 9.79756C17.7668 10.1906 17.8869 10.5252 18.1272 10.8009C18.3735 11.0699 18.6647 11.2044 19.0011 11.2044Z" fill="#0A85D1"/>
</svg>
