<svg width="88" height="31" viewBox="0 0 88 31" fill="none" xmlns="http://www.w3.org/2000/svg">
<g clip-path="url(#clip0_2_2383)">
<path d="M2.48957 2.11256L19.0896 0.886561C21.1286 0.711561 21.6526 0.829561 22.9346 1.76156L28.2336 5.49456C29.1076 6.13656 29.3986 6.31156 29.3986 7.01056V27.4836C29.3986 28.7666 28.9326 29.5256 27.3016 29.6416L8.02457 30.8086C6.80057 30.8666 6.21757 30.6916 5.57657 29.8746L1.67457 24.8006C0.97457 23.8666 0.68457 23.1676 0.68457 22.3506V4.15256C0.68457 3.10356 1.15057 2.22856 2.48957 2.11256Z" fill="white"/>
<path fill-rule="evenodd" clip-rule="evenodd" d="M19.0896 0.886561L2.48957 2.11256C1.15057 2.22856 0.68457 3.10356 0.68457 4.15256V22.3506C0.68457 23.1676 0.97457 23.8666 1.67457 24.8006L5.57657 29.8746C6.21757 30.6916 6.80057 30.8666 8.02457 30.8086L27.3016 29.6416C28.9316 29.5256 29.3986 28.7666 29.3986 27.4836V7.01056C29.3986 6.34756 29.1366 6.15656 28.3656 5.59056C28.3212 5.5586 28.2769 5.5266 28.2326 5.49456L22.9346 1.76156C21.6526 0.829561 21.1286 0.711561 19.0896 0.886561ZM8.46057 6.67556C6.88657 6.78156 6.52957 6.80556 5.63557 6.07856L3.36257 4.27056C3.13157 4.03656 3.24757 3.74456 3.82957 3.68656L19.7876 2.52056C21.1276 2.40356 21.8256 2.87056 22.3496 3.27856L25.0866 5.26156C25.2036 5.32056 25.4946 5.66956 25.1446 5.66956L8.66457 6.66156L8.46057 6.67556ZM6.62557 27.3086V9.92856C6.62557 9.16956 6.85857 8.81956 7.55657 8.76056L26.4846 7.65256C27.1266 7.59456 27.4166 8.00256 27.4166 8.76056V26.0246C27.4166 26.7836 27.2996 27.4256 26.2516 27.4836L8.13857 28.5336C7.09057 28.5916 6.62557 28.2426 6.62557 27.3086ZM24.5056 10.8606C24.6216 11.3856 24.5056 11.9106 23.9806 11.9706L23.1076 12.1436V24.9756C22.3496 25.3836 21.6516 25.6166 21.0686 25.6166C20.1366 25.6166 19.9036 25.3246 19.2056 24.4506L13.4966 15.4686V24.1586L15.3026 24.5676C15.3026 24.5676 15.3026 25.6176 13.8456 25.6176L9.82857 25.8506C9.71157 25.6166 9.82857 25.0336 10.2356 24.9176L11.2846 24.6266V13.1366L9.82857 13.0186C9.71157 12.4936 10.0026 11.7356 10.8186 11.6766L15.1286 11.3866L21.0686 20.4846V12.4356L19.5546 12.2616C19.4376 11.6186 19.9036 11.1516 20.4856 11.0946L24.5056 10.8606Z" fill="black"/>
<path d="M42.1187 22.0696V14.1596H42.2557L47.9597 22.0696H49.7557V10.4456H47.7587V18.3476H47.6217L41.9177 10.4456H40.1147V22.0686H42.1197L42.1187 22.0696ZM55.3997 22.2476C58.0347 22.2476 59.6377 20.5236 59.6377 17.6636C59.6377 14.8116 58.0267 13.0796 55.3997 13.0796C52.7817 13.0796 51.1627 14.8196 51.1627 17.6636C51.1627 20.5236 52.7577 22.2476 55.3997 22.2476ZM55.3997 20.5716C54.0067 20.5716 53.2097 19.5086 53.2097 17.6636C53.2097 15.8266 54.0067 14.7556 55.3997 14.7556C56.7857 14.7556 57.5827 15.8266 57.5827 17.6636C57.5827 19.5086 56.7937 20.5716 55.3997 20.5716ZM61.4627 11.0986V13.3136H60.0697V14.9086H61.4627V19.7176C61.4627 21.4256 62.2687 22.1106 64.2907 22.1106C64.6767 22.1106 65.0477 22.0706 65.3377 22.0136V20.4506C65.0957 20.4746 64.9427 20.4906 64.6607 20.4906C63.8237 20.4906 63.4527 20.1046 63.4527 19.2346V14.9086H65.3377V13.3136H63.4527V11.0976L61.4627 11.0986ZM66.5347 22.0696H68.5247V13.2566H66.5347V22.0696ZM67.5257 11.7996C68.1857 11.7996 68.7177 11.2666 68.7177 10.5986C68.7177 9.92965 68.1867 9.38965 67.5257 9.38965C66.8737 9.38965 66.3337 9.92965 66.3337 10.5986C66.3337 11.2666 66.8737 11.7986 67.5257 11.7986V11.7996ZM73.9837 22.2476C76.6177 22.2476 78.2207 20.5236 78.2207 17.6636C78.2207 14.8116 76.6097 13.0796 73.9837 13.0796C71.3647 13.0796 69.7457 14.8196 69.7457 17.6636C69.7457 20.5236 71.3407 22.2476 73.9837 22.2476ZM73.9837 20.5716C72.5897 20.5716 71.7917 19.5086 71.7917 17.6636C71.7917 15.8266 72.5897 14.7556 73.9837 14.7556C75.3687 14.7556 76.1667 15.8266 76.1667 17.6636C76.1667 19.5086 75.3768 20.5716 73.9837 20.5716ZM79.4097 22.0696H81.4077V16.9386C81.4077 15.6416 82.1577 14.8196 83.3487 14.8196C84.5657 14.8196 85.1287 15.4966 85.1287 16.8416V22.0696H87.1277V16.3666C87.1277 14.2636 86.0557 13.0796 84.0907 13.0796C82.7767 13.0796 81.8907 13.6836 81.4717 14.6666H81.3347V13.2566H79.4097V22.0696Z" fill="#121212"/>
</g>
<defs>
<clipPath id="clip0_2_2383">
<rect width="87" height="30" fill="white" transform="translate(0.68457 0.818359)"/>
</clipPath>
</defs>
</svg>
