<svg width="93" height="32" viewBox="0 0 93 32" fill="none" xmlns="http://www.w3.org/2000/svg">
<g clip-path="url(#clip0_2_3091)">
<path d="M2.10966 1.38683L19.8163 0.0790956C21.9913 -0.107571 22.5502 0.0182956 23.9177 1.01243L29.5699 4.9943C30.5022 5.6791 30.8126 5.86576 30.8126 6.61136V28.4492C30.8126 29.8178 30.3155 30.6274 28.5758 30.7511L8.01366 31.9959C6.70806 32.0578 6.08619 31.8711 5.40246 30.9996L1.24033 25.5874C0.49366 24.5911 0.184326 23.8455 0.184326 22.974V3.56283C0.184326 2.4439 0.681393 1.51056 2.10966 1.38683Z" fill="white"/>
<path fill-rule="evenodd" clip-rule="evenodd" d="M19.8163 0.0790956L2.10966 1.38683C0.681393 1.51056 0.184326 2.4439 0.184326 3.56283V22.974C0.184326 23.8455 0.49366 24.5911 1.24033 25.5874L5.40246 30.9996C6.08619 31.8711 6.70806 32.0578 8.01366 31.9959L28.5758 30.7511C30.3145 30.6274 30.8126 29.8178 30.8126 28.4492V6.61136C30.8126 5.90416 30.5331 5.70043 29.7107 5.09669C29.6634 5.06261 29.6161 5.02847 29.5689 4.9943L23.9177 1.01243C22.5502 0.0182956 21.9913 -0.107571 19.8163 0.0790956ZM8.47873 6.25403C6.79979 6.36709 6.41899 6.3927 5.46539 5.61723L3.04086 3.6887C2.79446 3.4391 2.91819 3.12763 3.53899 3.06576L20.5609 1.82203C21.9902 1.69723 22.7347 2.19536 23.2937 2.63056L26.2131 4.74576C26.3379 4.8087 26.6483 5.18096 26.275 5.18096L8.69633 6.2391L8.47873 6.25403ZM6.52139 28.2626V9.7239C6.52139 8.9143 6.76993 8.54096 7.51446 8.47803L27.7043 7.29616C28.3891 7.2343 28.6985 7.6695 28.6985 8.47803V26.893C28.6985 27.7026 28.5737 28.3874 27.4558 28.4492L8.13526 29.5692C7.01739 29.6311 6.52139 29.2588 6.52139 28.2626ZM25.5934 10.718C25.7171 11.278 25.5934 11.838 25.0334 11.902L24.1022 12.0866V25.774C23.2937 26.2092 22.5491 26.4578 21.9273 26.4578C20.9331 26.4578 20.6846 26.1463 19.9401 25.214L13.8505 15.6332V24.9026L15.7769 25.3388C15.7769 25.3388 15.7769 26.4588 14.2227 26.4588L9.93793 26.7074C9.81313 26.4578 9.93793 25.8359 10.3721 25.7122L11.491 25.4018V13.1458L9.93793 13.0199C9.81313 12.4599 10.1235 11.6514 10.9939 11.5884L15.5913 11.2791L21.9273 20.9836V12.398L20.3123 12.2124C20.1875 11.5266 20.6846 11.0284 21.3054 10.9676L25.5934 10.718Z" fill="black"/>
<path d="M44.3808 22.6743V14.2369H44.5269L50.6112 22.6743H52.5269V10.2753H50.3968V18.7041H50.2506L44.1664 10.2753H42.2432V22.6732H44.3818L44.3808 22.6743ZM58.5472 22.8641C61.3578 22.8641 63.0677 21.0252 63.0677 17.9745C63.0677 14.9324 61.3493 13.0849 58.5472 13.0849C55.7546 13.0849 54.0277 14.9409 54.0277 17.9745C54.0277 21.0252 55.729 22.8641 58.5472 22.8641ZM58.5472 21.0764C57.0613 21.0764 56.2112 19.9425 56.2112 17.9745C56.2112 16.0151 57.0613 14.8727 58.5472 14.8727C60.0256 14.8727 60.8757 16.0151 60.8757 17.9745C60.8757 19.9425 60.0341 21.0764 58.5472 21.0764ZM65.0144 10.9719V13.3345H63.5285V15.0359H65.0144V20.1655C65.0144 21.9873 65.8741 22.718 68.0309 22.718C68.4426 22.718 68.8384 22.6753 69.1477 22.6145V20.9473C68.8896 20.9729 68.7264 20.99 68.4256 20.99C67.5328 20.99 67.137 20.5783 67.137 19.6503V15.0359H69.1477V13.3345H67.137V10.9708L65.0144 10.9719ZM70.4245 22.6743H72.5472V13.2737H70.4245V22.6743ZM71.4816 11.7196C72.1856 11.7196 72.753 11.1511 72.753 10.4385C72.753 9.72493 72.1866 9.14893 71.4816 9.14893C70.7861 9.14893 70.2101 9.72493 70.2101 10.4385C70.2101 11.1511 70.7861 11.7185 71.4816 11.7185V11.7196ZM78.3701 22.8641C81.1797 22.8641 82.8896 21.0252 82.8896 17.9745C82.8896 14.9324 81.1712 13.0849 78.3701 13.0849C75.5765 13.0849 73.8496 14.9409 73.8496 17.9745C73.8496 21.0252 75.5509 22.8641 78.3701 22.8641ZM78.3701 21.0764C76.8832 21.0764 76.032 19.9425 76.032 17.9745C76.032 16.0151 76.8832 14.8727 78.3701 14.8727C79.8474 14.8727 80.6986 16.0151 80.6986 17.9745C80.6986 19.9425 79.856 21.0764 78.3701 21.0764ZM84.1578 22.6743H86.289V17.2012C86.289 15.8177 87.089 14.9409 88.3594 14.9409C89.6576 14.9409 90.2581 15.6631 90.2581 17.0977V22.6743H92.3904V16.5911C92.3904 14.3479 91.2469 13.0849 89.1509 13.0849C87.7493 13.0849 86.8042 13.7292 86.3573 14.7777H86.2112V13.2737H84.1578V22.6743Z" fill="#121212"/>
</g>
<defs>
<clipPath id="clip0_2_3091">
<rect width="92.8" height="32" fill="white" transform="translate(0.184326 0.00634766)"/>
</clipPath>
</defs>
</svg>
