<svg width="960" height="960" viewBox="0 0 960 960" fill="none" xmlns="http://www.w3.org/2000/svg">
<g clip-path="url(#clip0_583_1342)">
<path d="M744.91 225.418V869.046C744.91 880.463 740.375 891.413 732.302 899.487C724.229 907.561 713.28 912.098 701.863 912.099H670.849C676.502 912.099 682.101 910.985 687.324 908.822C692.547 906.658 697.293 903.487 701.291 899.489C705.288 895.491 708.459 890.745 710.623 885.521C712.786 880.298 713.9 874.7 713.9 869.046V225.418C713.9 219.765 712.787 214.167 710.624 208.944C708.461 203.721 705.29 198.975 701.293 194.978C697.295 190.981 692.55 187.81 687.327 185.647C682.104 183.484 676.506 182.371 670.853 182.371H701.867C707.519 182.371 713.117 183.485 718.339 185.648C723.562 187.811 728.307 190.982 732.304 194.98C736.301 198.977 739.471 203.722 741.634 208.945C743.797 214.168 744.91 219.765 744.91 225.418V225.418Z" fill="#171717"/>
<path d="M581.447 406.766C580.723 415.15 617.206 554.166 619.035 575.325C620.864 596.484 567.222 626.043 562.115 575.325C557.008 524.607 600.789 545.046 600.789 545.046L579.627 434.699L481.479 468.059C481.479 468.059 519.791 597.221 517.238 622.399C514.685 647.577 473.819 636.999 464.329 610.727C454.839 584.455 497.9 578.489 497.9 578.489L467.244 448.355C532.2 447.993 581.447 406.766 581.447 406.766Z" fill="#171717"/>
<path d="M502.641 842.324V854.524C502.639 855.991 502.056 857.397 501.019 858.433C499.982 859.47 498.576 860.054 497.11 860.055H490.41C488.943 860.054 487.538 859.47 486.501 858.433C485.464 857.397 484.88 855.991 484.879 854.524V842.8L502.641 842.324Z" fill="#171717"/>
<path d="M502.641 831.767V842.322L484.88 842.797V831.767C484.881 830.301 485.465 828.895 486.502 827.858C487.539 826.821 488.944 826.238 490.411 826.236H497.111C498.577 826.238 499.983 826.822 501.019 827.858C502.056 828.895 502.639 830.301 502.641 831.767V831.767Z" fill="#171717"/>
<path d="M461.289 881.937L442.805 891.665V872.209L461.289 881.937Z" fill="#171717"/>
<path d="M182.134 589.447C210.615 547.837 258.365 512.119 297.134 487.66C307.802 480.92 317.789 475.037 326.504 470.127C346.166 459.034 359.368 452.852 359.368 452.852H361.799V697.013C356.589 696.827 351.327 705.138 347.078 718.195C281.639 682.633 259.568 601.695 259.568 601.695C232.896 637.095 204.012 705.281 342.354 736.812C338.342 757.576 337.098 778.781 338.654 799.873L338.736 800.597C299.07 804.887 217.483 800.359 168.43 704.497C147.76 664.107 158.046 624.668 182.134 589.447Z" fill="url(#paint0_linear_583_1342)"/>
<path d="M361.8 270.419C361.8 270.419 344.536 262.149 333.836 268.475C323.136 274.801 273.987 213.499 216.581 256.804C159.175 300.109 182.528 348.749 182.528 348.749C182.528 348.749 125.607 340.479 126.579 406.642C127.551 472.805 169.879 470.861 169.879 470.861C169.879 470.861 136.312 500.045 145.554 537.023C154.683 573.547 181.489 589.085 182.13 589.447L182.14 589.457" stroke="#171717" stroke-width="3" stroke-linecap="round" stroke-linejoin="round"/>
<path d="M326.5 470.127C326.5 470.127 307.064 451.394 308.522 438.265C309.98 425.136 318.012 416.365 315.822 400.801C313.632 385.237 304.16 351.479 289.584 333.956C289.574 333.945 289.563 333.925 289.553 333.914" stroke="#171717" stroke-width="3" stroke-linecap="round" stroke-linejoin="round"/>
<path d="M257.446 336.83C258.177 337.074 258.923 337.268 259.679 337.409C266.179 338.753 274.731 337.595 282.443 335.817C284.943 335.238 287.364 334.597 289.587 333.956C296.741 331.878 301.961 329.779 301.961 329.779" stroke="#171717" stroke-width="3" stroke-linecap="round" stroke-linejoin="round"/>
<path d="M221.2 393.016C221.2 393.016 224.177 390.556 228.488 386.576C240.438 375.504 262.603 352.657 259.564 337.998" stroke="#171717" stroke-width="3" stroke-linecap="round" stroke-linejoin="round"/>
<path d="M297.134 487.661C297.134 487.661 250.189 405.3 228.759 386.877" stroke="#171717" stroke-width="3" stroke-linecap="round" stroke-linejoin="round"/>
<path d="M359.367 452.852C359.367 452.852 346.167 459.034 326.503 470.127C317.788 475.037 307.803 480.92 297.133 487.66C258.365 512.119 210.615 547.837 182.133 589.447C158.045 624.668 147.759 664.107 168.425 704.498C217.478 800.361 299.065 804.889 338.731 800.598C346.451 799.837 354.095 798.447 361.588 796.442L361.795 796.38" stroke="#171717" stroke-width="3" stroke-linecap="round" stroke-linejoin="round"/>
<path d="M361.8 737.579V225.418C361.8 219.764 362.915 214.166 365.079 208.943C367.243 203.72 370.415 198.974 374.413 194.977C378.412 190.98 383.158 187.809 388.382 185.646C393.606 183.483 399.204 182.37 404.858 182.371H701.863C707.516 182.371 713.114 183.484 718.337 185.647C723.56 187.81 728.305 190.981 732.303 194.978C736.3 198.975 739.471 203.721 741.634 208.944C743.797 214.167 744.91 219.765 744.91 225.418V869.046C744.91 880.463 740.375 891.413 732.302 899.487C724.23 907.561 713.28 912.098 701.863 912.099H404.855C393.437 912.097 382.487 907.561 374.413 899.487C366.339 891.414 361.802 880.464 361.8 869.046V796.446" stroke="#171717" stroke-width="3" stroke-linecap="round" stroke-linejoin="round"/>
<path d="M670.849 182.371C676.502 182.37 682.1 183.483 687.324 185.646C692.547 187.809 697.293 190.979 701.291 194.977C705.289 198.974 708.46 203.72 710.624 208.943C712.787 214.166 713.9 219.765 713.9 225.418V869.046C713.9 874.7 712.786 880.298 710.623 885.521C708.459 890.745 705.288 895.491 701.291 899.489C697.293 903.487 692.547 906.658 687.324 908.822C682.101 910.985 676.502 912.099 670.849 912.099" stroke="#171717" stroke-width="3" stroke-linecap="round" stroke-linejoin="round"/>
<path d="M338.651 799.875C337.095 778.783 338.339 757.579 342.351 736.814C343.555 730.519 345.132 724.302 347.075 718.195C351.324 705.138 356.586 696.827 361.796 697.013" stroke="#171717" stroke-width="3" stroke-linecap="round" stroke-linejoin="round"/>
<path d="M404.286 769.069C417.374 767.084 429.872 766.35 431.123 770.537C435.093 783.801 361.797 796.806 361.797 796.806" stroke="#171717" stroke-width="3" stroke-linecap="round" stroke-linejoin="round"/>
<path d="M404.286 769.068C389.1 772.821 373.117 775.395 373.117 775.395C373.117 775.395 389.089 771.384 404.286 769.068Z" stroke="#171717" stroke-width="3" stroke-linecap="round" stroke-linejoin="round"/>
<path d="M378.606 755.049C394.406 752.449 428.869 747.823 431.122 756.424C432.311 760.91 418.644 765.524 404.285 769.067" stroke="#171717" stroke-width="3" stroke-linecap="round" stroke-linejoin="round"/>
<path d="M371.256 756.343C372.249 756.143 374.823 755.671 378.39 755.092" stroke="#171717" stroke-width="3" stroke-linecap="round" stroke-linejoin="round"/>
<path d="M370.8 756.425C370.83 756.417 370.861 756.413 370.893 756.414C370.957 756.391 371.025 756.377 371.093 756.373" stroke="#171717" stroke-width="3" stroke-linecap="round" stroke-linejoin="round"/>
<path d="M371.091 756.373C371.008 756.394 370.946 756.404 370.891 756.414" stroke="#171717" stroke-width="3" stroke-linecap="round" stroke-linejoin="round"/>
<path d="M371.091 756.373C371.147 756.372 371.203 756.361 371.256 756.342" stroke="#171717" stroke-width="3" stroke-linecap="round" stroke-linejoin="round"/>
<path d="M378.39 755.092C374.854 755.744 372.259 756.192 371.256 756.343" stroke="#171717" stroke-width="3" stroke-linecap="round" stroke-linejoin="round"/>
<path d="M378.39 755.092C378.463 755.083 378.535 755.07 378.607 755.051" stroke="#171717" stroke-width="3" stroke-linecap="round" stroke-linejoin="round"/>
<path d="M361.8 738.427C361.828 738.426 361.856 738.422 361.883 738.416C364.302 738.065 422.432 729.856 425.296 738.427C427.539 745.146 394.196 752.166 378.61 755.05" stroke="#171717" stroke-width="3" stroke-linecap="round" stroke-linejoin="round"/>
<path d="M279.704 354.953L285.183 362.975" stroke="#171717" stroke-width="3" stroke-linecap="round" stroke-linejoin="round"/>
<path d="M247.966 373.561L253.435 380.488" stroke="#171717" stroke-width="3" stroke-linecap="round" stroke-linejoin="round"/>
<path d="M263.648 349.472C263.648 349.472 272.611 338.493 282.442 335.816" stroke="#171717" stroke-width="3" stroke-linecap="round" stroke-linejoin="round"/>
<path d="M282.442 383.041C282.442 383.041 294.786 385.967 291.984 390.341C289.182 394.715 282.442 397.887 282.442 397.887" stroke="#171717" stroke-width="3" stroke-linecap="round" stroke-linejoin="round"/>
<path d="M289.556 423.906C289.556 423.906 284.78 430.863 268.756 423.906" stroke="#171717" stroke-width="3" stroke-linecap="round" stroke-linejoin="round"/>
<path d="M439.879 843.997L484.88 842.798L502.641 842.323L659.291 838.156" stroke="#171717" stroke-width="3" stroke-linecap="round" stroke-linejoin="round"/>
<path d="M442.805 891.665V872.209L461.289 881.937L442.805 891.665Z" stroke="#171717" stroke-width="3" stroke-linecap="round" stroke-linejoin="round"/>
<path d="M477.344 872.209V891.665" stroke="#171717" stroke-width="3" stroke-linecap="round" stroke-linejoin="round"/>
<path d="M488.901 872.209V891.665" stroke="#171717" stroke-width="3" stroke-linecap="round" stroke-linejoin="round"/>
<path d="M467.244 448.355C532.197 447.993 581.444 406.766 581.444 406.766C580.72 415.15 617.203 554.166 619.032 575.325C620.861 596.484 567.219 626.043 562.112 575.325C557.005 524.607 600.786 545.046 600.786 545.046L579.627 434.699L481.479 468.059C481.479 468.059 519.791 597.221 517.238 622.399C514.685 647.577 473.819 636.999 464.329 610.727C454.839 584.455 497.9 578.489 497.9 578.489L467.244 448.355Z" stroke="#171717" stroke-width="3" stroke-linecap="round" stroke-linejoin="round"/>
<path d="M411.667 664.478L433.563 636.732" stroke="#171717" stroke-width="3" stroke-linecap="round" stroke-linejoin="round"/>
<path d="M538.637 659.609L541.026 693.176" stroke="#171717" stroke-width="3" stroke-linecap="round" stroke-linejoin="round"/>
<path d="M627.668 640.641L644.694 659.611" stroke="#171717" stroke-width="3" stroke-linecap="round" stroke-linejoin="round"/>
<path d="M636.186 452.853L651.993 443.125" stroke="#171717" stroke-width="3" stroke-linecap="round" stroke-linejoin="round"/>
<path d="M590.213 377.024L601.399 342.65" stroke="#171717" stroke-width="3" stroke-linecap="round" stroke-linejoin="round"/>
<path d="M510.424 386.876L496.313 344.852" stroke="#171717" stroke-width="3" stroke-linecap="round" stroke-linejoin="round"/>
<path d="M441.346 485.447L417.021 482.531" stroke="#171717" stroke-width="3" stroke-linecap="round" stroke-linejoin="round"/>
<path d="M565.144 209.611H495.115C493.79 209.609 492.519 209.081 491.582 208.144C490.645 207.207 490.117 205.936 490.115 204.611V203.419C490.117 202.094 490.645 200.824 491.582 199.888C492.52 198.952 493.79 198.426 495.115 198.426H565.144C565.8 198.425 566.449 198.554 567.055 198.805C567.661 199.056 568.212 199.424 568.676 199.887C569.139 200.351 569.507 200.902 569.758 201.508C570.009 202.114 570.138 202.763 570.137 203.419V204.608C570.138 205.933 569.613 207.205 568.676 208.143C567.74 209.081 566.47 209.609 565.144 209.611V209.611Z" stroke="#171717" stroke-width="3" stroke-linecap="round" stroke-linejoin="round"/>
<path d="M590.026 210.945C593.686 210.945 596.653 207.978 596.653 204.318C596.653 200.658 593.686 197.691 590.026 197.691C586.366 197.691 583.399 200.658 583.399 204.318C583.399 207.978 586.366 210.945 590.026 210.945Z" stroke="#171717" stroke-width="3" stroke-linecap="round" stroke-linejoin="round"/>
<path d="M502.641 842.322V854.522C502.639 855.989 502.056 857.395 501.019 858.432C499.982 859.468 498.576 860.052 497.11 860.053H490.41C488.943 860.052 487.538 859.468 486.501 858.432C485.464 857.395 484.88 855.989 484.879 854.522V831.767C484.88 830.301 485.464 828.895 486.501 827.858C487.538 826.821 488.943 826.238 490.41 826.236H497.11C498.576 826.238 499.982 826.821 501.019 827.858C502.056 828.895 502.639 830.301 502.641 831.767V842.322Z" stroke="#171717" stroke-width="3" stroke-linecap="round" stroke-linejoin="round"/>
<path d="M279.7 579.348C272.324 586.173 265.584 593.653 259.562 601.698C232.89 637.098 204.006 705.284 342.348 736.815" stroke="#171717" stroke-width="3" stroke-linecap="round" stroke-linejoin="round"/>
<path d="M259.565 601.699C259.565 601.699 281.636 682.635 347.075 718.199" stroke="#171717" stroke-width="3" stroke-linecap="round" stroke-linejoin="round"/>
<path d="M817.023 421.713C862.902 448.392 889.916 504.247 882.347 556.777C880.272 571.172 874.869 586.502 862.327 593.865C849.785 601.228 829.489 594.652 828.591 580.136C827.61 564.281 851.526 556.336 863.545 566.718C875.564 577.1 875.432 596.518 868.194 610.659C860.956 624.8 848.342 635.249 837.055 646.428C825.768 657.607 815.067 670.946 813.587 686.763C812.107 702.58 823.924 720.363 839.792 719.618C854.892 718.909 865.044 698.857 856.683 686.268" stroke="#171717" stroke-width="3" stroke-linecap="round" stroke-linejoin="round"/>
<path d="M810.589 633.344L798.913 615.83" stroke="#171717" stroke-width="3" stroke-linecap="round" stroke-linejoin="round"/>
<path d="M793.054 633.32L810.572 617.271" stroke="#171717" stroke-width="3" stroke-linecap="round" stroke-linejoin="round"/>
<path d="M905.454 485.939L920.054 472.803" stroke="#171717" stroke-width="3" stroke-linecap="round" stroke-linejoin="round"/>
<path d="M918.6 485.931L906.92 472.799" stroke="#171717" stroke-width="3" stroke-linecap="round" stroke-linejoin="round"/>
<path d="M135.026 573.311C129.517 568.259 125.492 561.798 123.386 554.625C121.281 547.452 121.174 539.84 123.078 532.611" stroke="#171717" stroke-width="3" stroke-linecap="round" stroke-linejoin="round"/>
<path d="M159.742 300.586C159.947 290.661 162.546 280.932 167.318 272.226C172.09 263.521 178.894 256.097 187.151 250.586" stroke="#171717" stroke-width="3" stroke-linecap="round" stroke-linejoin="round"/>
<path d="M356.868 174.822L336.375 160.314" stroke="#171717" stroke-width="3" stroke-linecap="round" stroke-linejoin="round"/>
<path d="M389.762 157.673L372.962 84.5352" stroke="#171717" stroke-width="3" stroke-linecap="round" stroke-linejoin="round"/>
<path d="M420.683 158.937L427.857 138.461" stroke="#171717" stroke-width="3" stroke-linecap="round" stroke-linejoin="round"/>
<path d="M607.313 92.1479C612.713 112.066 632.367 127.177 653.002 127.271C673.637 127.365 693.432 112.433 699.01 92.5709C701.251 84.5869 700.116 73.9779 692.424 70.8799C686.662 68.5589 679.778 72.0729 676.629 77.4279C673.48 82.7829 673.338 89.3939 674.193 95.5469C675.436 104.495 679.043 113.727 686.544 118.76C696.732 125.595 711.144 122.378 720.617 114.579C730.09 106.78 735.755 95.4099 741.15 84.3909" stroke="#171717" stroke-width="3" stroke-linecap="round" stroke-linejoin="round"/>
<path d="M640 66.9184L626.823 52.3594" stroke="#171717" stroke-width="3" stroke-linecap="round" stroke-linejoin="round"/>
<path d="M625.315 68.5462C626.908 61.0612 630.895 54.2984 636.673 49.2812" stroke="#171717" stroke-width="3" stroke-linecap="round" stroke-linejoin="round"/>
<path d="M826.559 291.675C823.78 287.191 821.145 284.998 815.869 285.012C810.593 285.026 805.335 288.846 804.439 294.045C803.543 299.244 807.907 304.945 813.179 304.756C818.643 304.563 822.279 299.214 824.979 294.456L851.2 248.318C850.933 252.611 852.024 256.88 854.319 260.517C856.614 264.155 859.996 266.979 863.985 268.586C867.975 270.194 872.369 270.506 876.546 269.476C880.722 268.446 884.468 266.128 887.253 262.849L859.431 316.642C857.678 320.033 855.856 323.512 852.96 325.999C850.064 328.486 845.802 329.777 842.35 328.148C836.734 325.497 837.26 316.048 842.696 313.048C848.132 310.048 855.553 313.198 858.422 318.706L860.175 315.166" stroke="#171717" stroke-width="3" stroke-linecap="round" stroke-linejoin="round"/>
<path d="M110.9 212.766C109.265 207.605 108.969 202.114 110.04 196.807C111.11 191.5 113.512 186.552 117.019 182.428C120.526 178.304 125.023 175.139 130.089 173.23C135.155 171.321 140.623 170.731 145.98 171.515C158.62 173.365 170.198 182.715 182.801 180.628C195.064 178.594 203.464 163.966 199.039 152.349C196.768 146.384 190.598 141.294 184.378 142.725C175.436 144.784 174.051 157.43 177.713 165.843C186.49 186.008 214.004 195.304 233.213 184.596C252.422 173.888 258.98 145.596 246.443 127.527" stroke="#171717" stroke-width="3" stroke-linecap="round" stroke-linejoin="round"/>
<path d="M219.734 128.25L210.899 110.777" stroke="#171717" stroke-width="3" stroke-linecap="round" stroke-linejoin="round"/>
<path d="M206.368 123.989L222.422 113.773" stroke="#171717" stroke-width="3" stroke-linecap="round" stroke-linejoin="round"/>
<path d="M171.6 227.482L162.827 209.982" stroke="#171717" stroke-width="3" stroke-linecap="round" stroke-linejoin="round"/>
<path d="M156.746 223.233C160.954 217.972 166.499 213.939 172.8 211.557" stroke="#171717" stroke-width="3" stroke-linecap="round" stroke-linejoin="round"/>
<path d="M95.3647 592.09C76.1247 613.757 66.7997 642.499 61.5697 670.999C59.0257 684.855 57.4017 699.555 62.4587 712.704C67.5157 725.853 81.2407 736.656 95.0517 733.879C108.863 731.102 116.67 710.725 105.784 701.779C95.4417 693.279 78.1347 702.47 75.1837 715.525C72.2327 728.58 79.5907 741.925 89.0927 751.357C98.5947 760.789 110.338 767.733 119.721 777.278C132.244 790.105 139.918 806.886 141.43 824.749C142.275 835.162 140.72 846.327 134.153 854.449C127.586 862.571 115.015 866.349 106.233 860.695C97.4507 855.041 97.1557 839.242 106.766 835.143" stroke="#171717" stroke-width="3" stroke-linecap="round" stroke-linejoin="round"/>
<path d="M164.952 761.434C169.853 774.03 177.787 785.222 188.05 794.016C198.314 802.811 210.59 808.936 223.788 811.848" stroke="#171717" stroke-width="3" stroke-linecap="round" stroke-linejoin="round"/>
<path d="M182.892 881.376L192.973 865.238" stroke="#171717" stroke-width="3" stroke-linecap="round" stroke-linejoin="round"/>
<path d="M193.017 878.785L178.886 866.572" stroke="#171717" stroke-width="3" stroke-linecap="round" stroke-linejoin="round"/>
<path d="M40.0488 518.119L56.0908 504.969" stroke="#171717" stroke-width="3" stroke-linecap="round" stroke-linejoin="round"/>
<path d="M52.865 521.149L40.165 503.326" stroke="#171717" stroke-width="3" stroke-linecap="round" stroke-linejoin="round"/>
<path d="M80.7588 726.983L89.2298 714.283" stroke="#171717" stroke-width="3" stroke-linecap="round" stroke-linejoin="round"/>
<path d="M90.6417 726.981L79.3477 715.688" stroke="#171717" stroke-width="3" stroke-linecap="round" stroke-linejoin="round"/>
<path d="M810.266 166.374C810.024 161.017 804.341 156.599 799.089 157.686C793.837 158.773 790.376 165.086 792.283 170.098C794.19 175.11 800.97 177.528 805.617 174.851C809.372 172.688 811.117 168.292 812.601 164.22L824.53 131.465C824.768 134.982 826.318 138.281 828.871 140.711C831.425 143.14 834.798 144.523 838.322 144.586" stroke="#171717" stroke-width="3" stroke-linecap="round" stroke-linejoin="round"/>
<path d="M874.674 363.098L890.761 354.398" stroke="#171717" stroke-width="3" stroke-linecap="round" stroke-linejoin="round"/>
<path d="M886.481 367.721L879.181 351.666" stroke="#171717" stroke-width="3" stroke-linecap="round" stroke-linejoin="round"/>
<path d="M290.307 210.641L283.584 217.359C283.382 217.564 283.122 217.701 282.839 217.753C282.556 217.805 282.264 217.768 282.003 217.648C281.741 217.527 281.523 217.33 281.378 217.081C281.233 216.833 281.168 216.545 281.192 216.259L281.933 206.784C281.956 206.507 281.895 206.23 281.759 205.988C281.624 205.746 281.419 205.549 281.171 205.424L272.704 201.106C272.447 200.977 272.236 200.772 272.099 200.518C271.963 200.265 271.908 199.976 271.941 199.69C271.975 199.404 272.096 199.135 272.288 198.921C272.48 198.706 272.733 198.556 273.013 198.491L282.254 196.267C282.524 196.202 282.769 196.059 282.957 195.855C283.145 195.652 283.268 195.397 283.311 195.123L284.801 185.736C284.844 185.451 284.974 185.186 285.173 184.978C285.372 184.77 285.63 184.628 285.912 184.572C286.195 184.516 286.488 184.548 286.751 184.664C287.015 184.78 287.236 184.975 287.384 185.222L292.355 193.322C292.5 193.558 292.712 193.747 292.964 193.863C293.216 193.979 293.497 194.017 293.77 193.974L303.158 192.49C303.443 192.442 303.735 192.484 303.995 192.608C304.255 192.733 304.47 192.935 304.611 193.187C304.752 193.439 304.812 193.728 304.782 194.015C304.752 194.301 304.635 194.572 304.445 194.79L298.276 202.021C298.096 202.232 297.982 202.491 297.95 202.767C297.917 203.042 297.967 203.322 298.093 203.569L302.405 212.039C302.538 212.294 302.588 212.584 302.55 212.87C302.511 213.155 302.386 213.421 302.191 213.633C301.995 213.844 301.74 213.99 301.458 214.051C301.177 214.112 300.884 214.085 300.618 213.973L291.835 210.341C291.58 210.234 291.298 210.205 291.026 210.259C290.754 210.312 290.504 210.445 290.307 210.641V210.641Z" fill="#171717"/>
<path d="M286.149 495.999C290.616 502.683 295.169 509.464 301.333 514.624C307.497 519.784 315.607 523.193 323.547 521.935C335.137 520.098 343.305 508.711 345.247 497.135C347.189 485.559 344.26 473.788 341.338 462.424" stroke="#171717" stroke-width="3" stroke-linecap="round" stroke-linejoin="round"/>
<path d="M320.021 731.07C312.906 753.71 310.514 777.569 312.993 801.17" stroke="#171717" stroke-width="3" stroke-linecap="round" stroke-linejoin="round"/>
<path d="M331.229 662.592L338.499 653.084" stroke="#171717" stroke-width="3" stroke-linecap="round" stroke-linejoin="round"/>
<path d="M343.558 580.799L334.072 575.691" stroke="#171717" stroke-width="3" stroke-linecap="round" stroke-linejoin="round"/>
<path d="M290.3 621.615C293.532 622.331 296.913 621.879 299.844 620.34" stroke="#171717" stroke-width="3" stroke-linecap="round" stroke-linejoin="round"/>
<path d="M287.26 544.308L287.903 534.816" stroke="#171717" stroke-width="3" stroke-linecap="round" stroke-linejoin="round"/>
<path d="M234.828 585.182L242.855 586.641" stroke="#171717" stroke-width="3" stroke-linecap="round" stroke-linejoin="round"/>
<path d="M189.584 627.507L185.936 618.75" stroke="#171717" stroke-width="3" stroke-linecap="round" stroke-linejoin="round"/>
<path d="M213.6 683.587L221.639 678.498" stroke="#171717" stroke-width="3" stroke-linecap="round" stroke-linejoin="round"/>
<path d="M205.638 729.669L198.338 725.291" stroke="#171717" stroke-width="3" stroke-linecap="round" stroke-linejoin="round"/>
<path d="M258.909 736.966C261.24 733.44 264.532 730.654 268.396 728.939" stroke="#171717" stroke-width="3" stroke-linecap="round" stroke-linejoin="round"/>
<path d="M264.657 775.688L260.962 768.414" stroke="#171717" stroke-width="3" stroke-linecap="round" stroke-linejoin="round"/>
<path fill-rule="evenodd" clip-rule="evenodd" d="M182.134 589.448C210.616 547.838 258.366 512.12 297.134 487.661C297.134 487.661 250.189 405.3 228.763 386.877L228.494 386.577C240.444 375.505 262.609 352.658 259.57 337.999L259.683 337.41C266.186 338.754 274.735 337.596 282.447 335.818C284.949 335.239 287.368 334.598 289.591 333.957C304.167 351.48 313.639 385.238 315.829 400.802C317.162 410.276 314.707 417.233 312.254 424.188C310.676 428.658 309.099 433.128 308.529 438.266C307.071 451.395 326.507 470.128 326.507 470.128C346.171 459.035 359.371 452.853 359.371 452.853H361.8V270.42C361.8 270.42 344.547 262.147 333.837 268.476C330.749 270.301 324.466 266.503 315.712 261.212C294.105 248.153 257.439 225.993 216.585 256.805C159.178 300.1 182.532 348.75 182.532 348.75C182.532 348.75 125.606 340.481 126.583 406.643C127.56 472.805 169.883 470.862 169.883 470.862C169.883 470.862 136.316 500.046 145.558 537.024C154.687 573.548 181.493 589.086 182.134 589.448ZM279.612 248.231C269.693 246.094 259.422 246.185 249.542 248.498C239.662 250.811 230.419 255.287 222.478 261.605C221.83 262.121 221.723 263.064 222.238 263.713C222.754 264.361 223.698 264.468 224.346 263.953C231.939 257.911 240.778 253.631 250.226 251.419C259.674 249.208 269.495 249.12 278.98 251.164C288.466 253.207 297.38 257.331 305.079 263.236C312.778 269.142 319.071 276.682 323.503 285.314C323.75 285.796 324.239 286.107 324.781 286.128C325.323 286.148 325.833 285.874 326.116 285.412C328.629 281.307 333.091 278.638 337.958 277.79C342.826 276.942 347.927 277.946 351.68 280.959C352.326 281.478 353.27 281.375 353.789 280.729C354.307 280.083 354.204 279.139 353.558 278.62C349.021 274.977 343.007 273.866 337.444 274.835C332.69 275.662 328.14 278.031 325.021 281.798C320.474 273.666 314.312 266.537 306.905 260.856C298.853 254.68 289.532 250.368 279.612 248.231Z" fill="#171717"/>
<path d="M730.755 256.814L731.872 337.556" stroke="url(#paint1_linear_583_1342)" stroke-width="3" stroke-linecap="round" stroke-linejoin="round"/>
<path d="M733.137 363.336C731.651 384.22 731.144 405.143 731.616 426.104" stroke="url(#paint2_linear_583_1342)" stroke-width="3" stroke-linecap="round" stroke-linejoin="round"/>
<g opacity="0.1">
<path d="M261.406 339.424C256.806 346.774 253.397 354.75 248.426 361.881C243.463 369.038 237.408 375.372 230.482 380.652C227.307 383.043 226.16 386.452 227.982 390.17C236.551 407.609 248.694 423.542 259.439 439.714L291.951 488.641C298.006 497.754 312.831 489.161 306.684 480.029L273.311 430.454C262.276 414.063 251.984 396.578 238.911 381.74V391.578C252.426 378.986 266.68 360.194 267.082 340.962C267.147 337.851 262.963 336.935 261.405 339.424H261.406Z" fill="#171717"/>
</g>
<g opacity="0.1">
<path d="M281.382 498.839C249.835 518.339 218.854 540.361 195.037 569.17C172.172 596.827 155.789 632.045 157.299 668.595C158.776 704.342 178.634 735.929 205.376 758.666C218.411 769.636 232.905 778.746 248.443 785.736C263.915 792.787 280.475 798.599 297.427 800.57C306.62 801.662 315.863 802.294 325.12 802.463C334.51 802.605 343.655 801.386 352.949 800.263C362.54 799.106 371.209 796.232 380.51 793.817C389.132 791.578 398.352 789.606 405.227 783.762C405.506 783.47 405.695 783.103 405.77 782.706C405.845 782.309 405.802 781.898 405.647 781.525C405.492 781.151 405.232 780.831 404.898 780.603C404.565 780.375 404.172 780.249 403.768 780.241C396.251 780.828 389.61 783.989 382.368 785.991C374.335 788.209 366.53 788.532 358.33 789.512C343.03 791.341 326.724 790.546 311.491 788.263C303.891 787.125 296.405 784.806 288.951 782.978C281.429 781.133 274.026 778.834 266.783 776.095C252.236 770.527 238.522 762.991 226.022 753.7C200.999 735.227 179.951 709.092 174.912 677.7C169.69 645.167 182.895 612.01 201.728 586.042C224.716 554.342 257.728 531.508 287.801 507.155C292.501 503.346 286.43 495.715 281.382 498.836V498.839Z" fill="#171717"/>
</g>
<g opacity="0.1">
<path d="M258.849 599.575C256.793 605.441 259.74 612.19 261.774 617.705C263.794 623.313 266.113 628.809 268.721 634.169C273.903 644.596 280.032 654.526 287.029 663.834C301.323 682.962 318.895 699.404 338.929 712.399C349.038 718.938 358.41 702.788 348.345 696.29C330.277 684.666 314.472 669.855 301.7 652.58C295.266 643.822 289.595 634.528 284.751 624.8C282.451 620.178 280.151 615.556 278.163 610.788C275.771 605.04 274.25 599.258 269.041 595.429C265.171 592.586 260.183 595.771 258.849 599.576V599.575Z" fill="#171717"/>
</g>
</g>
<defs>
<linearGradient id="paint0_linear_583_1342" x1="259.565" y1="452.852" x2="259.565" y2="801.655" gradientUnits="userSpaceOnUse">
<stop stop-color="#FFB800"/>
<stop offset="1" stop-color="#FF7F0A"/>
</linearGradient>
<linearGradient id="paint1_linear_583_1342" x1="731.313" y1="256.814" x2="731.313" y2="337.556" gradientUnits="userSpaceOnUse">
<stop stop-color="#FFB800"/>
<stop offset="1" stop-color="#FF7F0A"/>
</linearGradient>
<linearGradient id="paint2_linear_583_1342" x1="732.291" y1="363.336" x2="732.291" y2="426.104" gradientUnits="userSpaceOnUse">
<stop stop-color="#FFB800"/>
<stop offset="1" stop-color="#FF7F0A"/>
</linearGradient>
<clipPath id="clip0_583_1342">
<rect width="884" height="867" fill="white" transform="translate(38 47)"/>
</clipPath>
</defs>
</svg>
